{"asset":{"version":"2.0","generator":"THREE.GLTFExporter"},"scenes":[{"nodes":[0,1,2]}],"scene":0,"nodes":[{"matrix":[1000,0,0,0,0,1000,0,0,0,0,1000,0,0,0,0,1],"mesh":0},{},{"mesh":1}],"bufferViews":[{"buffer":0,"byteOffset":0,"byteLength":288,"target":34962,"byteStride":12},{"buffer":0,"byteOffset":288,"byteLength":288,"target":34962,"byteStride":12},{"buffer":0,"byteOffset":576,"byteLength":192,"target":34962,"byteStride":8},{"buffer":0,"byteOffset":768,"byteLength":72,"target":34963},{"buffer":0,"byteOffset":840,"byteLength":480048,"target":34962,"byteStride":12},{"buffer":0,"byteOffset":480888,"byteLength":480048,"target":34962,"byteStride":12}],"buffers":[{"byteLength":960936,"uri":"data:application/octet-stream;base64,"}],"accessors":[{"bufferView":0,"componentType":5126,"count":24,"max":[0.5,0.5,0.5],"min":[-0.5,-0.5,-0.5],"type":"VEC3"},{"bufferView":1,"componentType":5126,"count":24,"max":[1,1,1],"min":[-1,-1,-1],"type":"VEC3"},{"bufferView":2,"componentType":5126,"count":24,"max":[1,1],"min":[0,0],"type":"VEC2"},{"bufferView":3,"componentType":5123,"count":36,"max":[23],"min":[0],"type":"SCALAR"},{"bufferView":4,"componentType":5126,"count":40004,"max":[5000,0,5000],"min":[-5000,0,-5000],"type":"VEC3"},{"bufferView":5,"componentType":5126,"count":40004,"max":[0.2462013214826584,0.2462013214826584,0.2462013214826584],"min":[0.05780543014407158,0.05780543014407158,0.05780543014407158],"type":"VEC3"}],"meshes":[{"primitives":[{"mode":4,"attributes":{"POSITION":0,"NORMAL":1,"TEXCOORD_0":2},"indices":3}]},{"primitives":[{"mode":1,"attributes":{"POSITION":4,"COLOR_0":5},"material":0}]}],"materials":[{"pbrMetallicRoughness":{"metallicFactor":0.5,"roughnessFactor":0.5}}]}